#N canvas -1453 246 556 422 10;
#X obj 222 125 vsl 15 128 0.001 0.5 1 0 empty empty empty 0 -9 0 10
-262144 -1 -1 0 1;
#X obj 311 12 loadbang;
#X obj 311 36 s b;
#X obj 172 43 unpackOSC;
#X obj 172 23 udpreceive 3001;
#X obj 94 84 adc~;
#X obj 155 353 dac~;
#X obj 143 272 *~;
#X obj 174 273 *~;
#N canvas 780 178 651 756 bpf_bank 1;
#X obj 28 12 inlet~;
#X obj 71 12 inlet~;
#X obj 114 12 inlet;
#X obj 173 57 unpack f f f f f f f f;
#X obj 119 354 outlet~;
#X obj 168 354 outlet~;
#X msg 63 169 0 \$1;
#X msg 97 169 1 \$1;
#X msg 132 169 2 \$1;
#X msg 166 169 3 \$1;
#X msg 201 169 4 \$1;
#X msg 235 169 5 \$1;
#X msg 270 169 6 \$1;
#X msg 304 169 7 \$1;
#X msg 341 169 0 \$1;
#X msg 375 169 1 \$1;
#X msg 410 169 2 \$1;
#X msg 444 169 3 \$1;
#X msg 479 169 4 \$1;
#X msg 513 169 5 \$1;
#X msg 548 169 6 \$1;
#X msg 582 169 7 \$1;
#X obj 398 59 unpack f f f f f f f f;
#X obj 339 16 inlet;
#X obj 108 222 clone unit_bpf 32;
#X connect 0 0 24 0;
#X connect 1 0 24 1;
#X connect 2 0 24 2;
#X connect 3 0 6 0;
#X connect 3 1 7 0;
#X connect 3 2 8 0;
#X connect 3 3 9 0;
#X connect 3 4 10 0;
#X connect 3 5 11 0;
#X connect 3 6 12 0;
#X connect 3 7 13 0;
#X connect 22 0 14 0;
#X connect 22 1 15 0;
#X connect 22 2 16 0;
#X connect 22 3 17 0;
#X connect 22 4 18 0;
#X connect 22 5 19 0;
#X connect 22 6 20 0;
#X connect 22 7 21 0;
#X connect 23 0 24 3;
#X connect 24 0 4 0;
#X connect 24 1 5 0;
#X restore 130 150 pd bpf_bank;
#X obj 413 106 r b;
#N canvas 106 179 651 756 lop_bank 1;
#X obj 28 12 inlet~;
#X obj 71 12 inlet~;
#X obj 114 12 inlet;
#X obj 113 321 outlet~;
#X obj 162 321 outlet~;
#X obj 113 56 unpack f f f f f f f f;
#X obj 349 26 inlet;
#X msg 5 150 0 \$1;
#X msg 39 150 1 \$1;
#X msg 74 150 2 \$1;
#X msg 108 150 3 \$1;
#X msg 143 150 4 \$1;
#X msg 177 150 5 \$1;
#X msg 212 150 6 \$1;
#X msg 246 150 7 \$1;
#X msg 287 149 0 \$1;
#X msg 321 149 1 \$1;
#X msg 356 149 2 \$1;
#X msg 390 149 3 \$1;
#X msg 425 149 4 \$1;
#X msg 459 149 5 \$1;
#X msg 494 149 6 \$1;
#X msg 528 149 7 \$1;
#X obj 349 69 unpack f f f f f f f f;
#X obj 107 241 clone unit_lop 32;
#X connect 0 0 24 0;
#X connect 1 0 24 1;
#X connect 2 0 24 2;
#X connect 5 0 7 0;
#X connect 5 1 8 0;
#X connect 5 2 9 0;
#X connect 5 3 10 0;
#X connect 5 4 11 0;
#X connect 5 5 12 0;
#X connect 5 6 13 0;
#X connect 5 7 14 0;
#X connect 6 0 24 3;
#X connect 23 0 15 0;
#X connect 23 1 16 0;
#X connect 23 2 17 0;
#X connect 23 3 18 0;
#X connect 23 4 19 0;
#X connect 23 5 20 0;
#X connect 23 6 21 0;
#X connect 23 7 22 0;
#X connect 24 0 3 0;
#X connect 24 1 4 0;
#X restore 56 150 pd lop_bank;
#X obj 180 92 print;
#X obj 371 13 bng 15 250 50 0 empty empty empty 17 7 0 10 -262144 -1
-1;
#X obj 172 64 routeOSC /absolute /relative /ids;
#X connect 0 0 7 1;
#X connect 0 0 8 1;
#X connect 1 0 2 0;
#X connect 3 0 14 0;
#X connect 4 0 3 0;
#X connect 5 0 11 0;
#X connect 5 1 11 1;
#X connect 7 0 6 0;
#X connect 8 0 6 1;
#X connect 9 0 7 0;
#X connect 9 1 8 0;
#X connect 11 0 7 0;
#X connect 11 1 8 0;
#X connect 13 0 2 0;
#X connect 14 0 9 2;
#X connect 14 0 11 2;
#X connect 14 0 12 0;
#X connect 14 2 11 3;
#X connect 14 2 9 3;
