#N canvas -1316 222 556 422 10;
#X obj 222 125 vsl 15 128 0.01 1 1 0 empty empty empty 0 -9 0 10 -262144
-1 -1 12700 1;
#X obj 311 12 loadbang;
#X obj 311 36 s b;
#X obj 172 43 unpackOSC;
#X obj 172 23 udpreceive 3001;
#X obj 94 84 adc~;
#X obj 155 353 dac~;
#X obj 143 272 *~;
#X obj 174 273 *~;
#N canvas -1189 72 651 756 bpf_bank 1;
#X obj 28 12 inlet~;
#X obj 71 12 inlet~;
#X obj 114 12 inlet;
#X obj 114 37 unpack f f f f f f f f;
#X obj 350 30 inlet;
#X obj 92 652 outlet~;
#X obj 141 652 outlet~;
#X floatatom 478 179 5 0 0 0 - - -;
#X msg 505 201 0;
#X floatatom 514 230 5 0 0 0 - - -;
#X floatatom 559 283 5 0 0 0 - - -;
#X floatatom 603 337 5 0 0 0 - - -;
#X floatatom 647 392 5 0 0 0 - - -;
#X floatatom 693 445 5 0 0 0 - - -;
#X floatatom 738 498 5 0 0 0 - - -;
#X floatatom 782 552 5 0 0 0 - - -;
#X msg 551 254 0.125;
#X msg 596 307 0.25;
#X msg 640 361 0.375;
#X msg 684 416 0.5;
#X msg 730 469 0.675;
#X msg 775 522 0.8;
#X msg 819 576 0.925;
#X obj 448 230 unit_bpf;
#X obj 494 283 unit_bpf;
#X obj 539 336 unit_bpf;
#X obj 583 390 unit_bpf;
#X obj 627 445 unit_bpf;
#X obj 673 498 unit_bpf;
#X obj 718 551 unit_bpf;
#X obj 762 605 unit_bpf;
#X obj 477 564 *~ 0.5;
#X obj 525 565 *~ 0.5;
#X obj 81 316 clone unit_bpf 8;
#X msg 22 255 0 \$1;
#X msg 56 255 1 \$1;
#X msg 91 255 2 \$1;
#X msg 125 255 3 \$1;
#X msg 160 255 4 \$1;
#X msg 194 255 5 \$1;
#X msg 229 255 6 \$1;
#X msg 263 255 7 \$1;
#X msg 323 83 all bang;
#X connect 0 0 30 0;
#X connect 0 0 23 0;
#X connect 0 0 24 0;
#X connect 0 0 25 0;
#X connect 0 0 26 0;
#X connect 0 0 27 0;
#X connect 0 0 28 0;
#X connect 0 0 29 0;
#X connect 0 0 33 0;
#X connect 1 0 30 1;
#X connect 1 0 23 1;
#X connect 1 0 24 1;
#X connect 1 0 25 1;
#X connect 1 0 26 1;
#X connect 1 0 27 1;
#X connect 1 0 28 1;
#X connect 1 0 29 1;
#X connect 1 0 33 1;
#X connect 2 0 3 0;
#X connect 3 0 7 0;
#X connect 3 0 34 0;
#X connect 3 1 9 0;
#X connect 3 1 35 0;
#X connect 3 2 10 0;
#X connect 3 2 36 0;
#X connect 3 3 11 0;
#X connect 3 3 37 0;
#X connect 3 4 12 0;
#X connect 3 4 38 0;
#X connect 3 5 13 0;
#X connect 3 5 39 0;
#X connect 3 6 14 0;
#X connect 3 6 40 0;
#X connect 3 7 15 0;
#X connect 3 7 41 0;
#X connect 4 0 8 0;
#X connect 4 0 16 0;
#X connect 4 0 17 0;
#X connect 4 0 18 0;
#X connect 4 0 19 0;
#X connect 4 0 20 0;
#X connect 4 0 21 0;
#X connect 4 0 22 0;
#X connect 4 0 42 0;
#X connect 7 0 23 2;
#X connect 8 0 23 3;
#X connect 9 0 24 2;
#X connect 10 0 25 2;
#X connect 11 0 26 2;
#X connect 12 0 27 2;
#X connect 13 0 28 2;
#X connect 14 0 29 2;
#X connect 15 0 30 2;
#X connect 16 0 24 3;
#X connect 17 0 25 3;
#X connect 18 0 26 3;
#X connect 19 0 27 3;
#X connect 20 0 28 3;
#X connect 21 0 29 3;
#X connect 22 0 30 3;
#X connect 23 0 31 0;
#X connect 23 1 32 0;
#X connect 24 0 31 0;
#X connect 24 1 32 0;
#X connect 25 0 31 0;
#X connect 25 1 32 0;
#X connect 26 0 31 0;
#X connect 26 1 32 0;
#X connect 27 0 31 0;
#X connect 27 1 32 0;
#X connect 28 0 31 0;
#X connect 28 1 32 0;
#X connect 29 0 31 0;
#X connect 29 1 32 0;
#X connect 30 0 31 0;
#X connect 30 1 32 0;
#X connect 33 0 5 0;
#X connect 33 1 6 0;
#X connect 34 0 33 2;
#X connect 35 0 33 2;
#X connect 36 0 33 2;
#X connect 37 0 33 2;
#X connect 38 0 33 2;
#X connect 39 0 33 2;
#X connect 40 0 33 2;
#X connect 41 0 33 2;
#X connect 42 0 33 3;
#X restore 130 150 pd bpf_bank;
#X obj 172 64 routeOSC /absolute /relative;
#X obj 143 88 r b;
#N canvas 106 179 651 756 lop_bank 0;
#X obj 28 12 inlet~;
#X obj 71 12 inlet~;
#X obj 114 12 inlet;
#X obj 114 37 unpack f f f f f f f f;
#X obj 350 30 inlet;
#X obj 40 684 outlet~;
#X obj 89 684 outlet~;
#X floatatom 69 91 5 0 0 0 - - -;
#X msg 96 113 0;
#X floatatom 105 142 5 0 0 0 - - -;
#X floatatom 150 195 5 0 0 0 - - -;
#X floatatom 194 249 5 0 0 0 - - -;
#X floatatom 238 304 5 0 0 0 - - -;
#X floatatom 284 357 5 0 0 0 - - -;
#X floatatom 329 410 5 0 0 0 - - -;
#X floatatom 373 464 5 0 0 0 - - -;
#X msg 142 166 0.125;
#X msg 187 219 0.25;
#X msg 231 273 0.375;
#X msg 275 328 0.5;
#X msg 321 381 0.675;
#X msg 366 434 0.8;
#X msg 410 488 0.925;
#X obj 41 652 *~ 0.5;
#X obj 89 653 *~ 0.5;
#X obj 39 142 unit_lop;
#X obj 85 195 unit_lop;
#X obj 130 248 unit_lop;
#X obj 174 302 unit_lop;
#X obj 218 357 unit_lop;
#X obj 264 410 unit_lop;
#X obj 309 463 unit_lop;
#X obj 353 517 unit_lop;
#X obj 349 627 clone unit_lop 8;
#X connect 0 0 29 0;
#X connect 0 0 25 0;
#X connect 0 0 26 0;
#X connect 0 0 27 0;
#X connect 0 0 28 0;
#X connect 0 0 30 0;
#X connect 0 0 31 0;
#X connect 0 0 32 0;
#X connect 1 0 29 1;
#X connect 1 0 25 1;
#X connect 1 0 26 1;
#X connect 1 0 27 1;
#X connect 1 0 28 1;
#X connect 1 0 30 1;
#X connect 1 0 31 1;
#X connect 1 0 32 1;
#X connect 2 0 3 0;
#X connect 3 0 7 0;
#X connect 3 1 9 0;
#X connect 3 2 10 0;
#X connect 3 3 11 0;
#X connect 3 4 12 0;
#X connect 3 5 13 0;
#X connect 3 6 14 0;
#X connect 3 7 15 0;
#X connect 4 0 8 0;
#X connect 4 0 16 0;
#X connect 4 0 17 0;
#X connect 4 0 18 0;
#X connect 4 0 19 0;
#X connect 4 0 20 0;
#X connect 4 0 21 0;
#X connect 4 0 22 0;
#X connect 7 0 25 2;
#X connect 8 0 25 3;
#X connect 9 0 26 2;
#X connect 10 0 27 2;
#X connect 11 0 28 2;
#X connect 12 0 29 2;
#X connect 13 0 30 2;
#X connect 14 0 31 2;
#X connect 15 0 32 2;
#X connect 16 0 26 3;
#X connect 17 0 27 3;
#X connect 18 0 28 3;
#X connect 19 0 29 3;
#X connect 20 0 30 3;
#X connect 21 0 31 3;
#X connect 22 0 32 3;
#X connect 23 0 5 0;
#X connect 24 0 6 0;
#X connect 25 0 23 0;
#X connect 25 1 24 0;
#X connect 26 0 23 0;
#X connect 26 1 24 0;
#X connect 27 0 23 0;
#X connect 27 1 24 0;
#X connect 28 0 23 0;
#X connect 28 1 24 0;
#X connect 29 0 23 0;
#X connect 29 1 24 0;
#X connect 30 0 23 0;
#X connect 30 1 24 0;
#X connect 31 0 23 0;
#X connect 31 1 24 0;
#X connect 32 0 23 0;
#X connect 32 1 24 0;
#X restore 56 150 pd lop_bank;
#X obj 254 94 print;
#X obj 371 13 bng 15 250 50 0 empty empty empty 17 7 0 10 -262144 -1
-1;
#X connect 0 0 7 1;
#X connect 0 0 8 1;
#X connect 1 0 2 0;
#X connect 3 0 10 0;
#X connect 4 0 3 0;
#X connect 5 0 9 0;
#X connect 5 1 9 1;
#X connect 7 0 6 0;
#X connect 8 0 6 1;
#X connect 9 0 7 0;
#X connect 9 1 8 0;
#X connect 10 0 9 2;
#X connect 10 0 12 2;
#X connect 11 0 9 3;
#X connect 11 0 12 3;
#X connect 12 0 7 0;
#X connect 12 1 8 0;
#X connect 14 0 2 0;
