#N canvas -624 105 556 422 10;
#X obj 264 135 vsl 15 128 0.001 0.5 1 0 empty empty empty 0 -9 0 10
-262144 -1 -1 7100 1;
#X obj 311 12 loadbang;
#X obj 311 36 s b;
#X obj 172 43 unpackOSC;
#X obj 172 23 udpreceive 3001;
#X obj 204 337 dac~;
#X obj 196 288 *~;
#X obj 227 289 *~;
#X obj 378 145 r b;
#X obj 319 124 print;
#X obj 371 13 bng 15 250 50 0 empty empty empty 17 7 0 10 -262144 -1
-1;
#N canvas 0 50 606 449 amp_trig_bank 0;
#X restore 35 267 pd amp_trig_bank;
#N canvas -1466 80 651 756 tri_bank 1;
#X obj 12 10 inlet;
#X obj 46 705 outlet~;
#X obj 95 705 outlet~;
#X obj 250 275 inlet;
#X msg 9 99 0 \$1;
#X msg 43 99 1 \$1;
#X msg 78 99 2 \$1;
#X msg 112 99 3 \$1;
#X msg 147 99 4 \$1;
#X msg 181 99 5 \$1;
#X msg 216 99 6 \$1;
#X msg 250 99 7 \$1;
#X msg 70 367 0 \$1;
#X msg 104 367 1 \$1;
#X msg 139 367 2 \$1;
#X msg 173 367 3 \$1;
#X msg 208 367 4 \$1;
#X msg 242 367 5 \$1;
#X msg 277 367 6 \$1;
#X msg 311 367 7 \$1;
#X obj 11 54 unpack f f f f f f f f f f f f f f f f f f f f f f f f
f f f f f f f f;
#X obj 251 304 unpack f f f f f f f f f f f f f f f f f f f f f f f
f f f f f f f f f;
#X msg 98 127 8 \$1;
#X msg 132 127 9 \$1;
#X msg 166 127 10 \$1;
#X msg 201 127 11 \$1;
#X msg 236 127 12 \$1;
#X msg 270 127 13 \$1;
#X msg 305 127 14 \$1;
#X msg 339 127 15 \$1;
#X msg 230 161 16 \$1;
#X msg 264 161 17 \$1;
#X msg 306 161 18 \$1;
#X msg 340 161 19 \$1;
#X msg 375 161 20 \$1;
#X msg 409 161 21 \$1;
#X msg 444 161 22 \$1;
#X msg 482 161 23 \$1;
#X msg 340 187 24 \$1;
#X msg 374 187 25 \$1;
#X msg 408 187 26 \$1;
#X msg 443 187 27 \$1;
#X msg 478 187 28 \$1;
#X msg 512 187 29 \$1;
#X msg 547 187 30 \$1;
#X msg 581 187 31 \$1;
#X msg 182 397 8 \$1;
#X msg 216 397 9 \$1;
#X msg 251 397 10 \$1;
#X msg 285 397 11 \$1;
#X msg 320 397 12 \$1;
#X msg 354 397 13 \$1;
#X msg 389 397 14 \$1;
#X msg 423 397 15 \$1;
#X msg 303 425 16 \$1;
#X msg 337 425 17 \$1;
#X msg 372 425 18 \$1;
#X msg 406 425 19 \$1;
#X msg 441 425 20 \$1;
#X msg 475 425 21 \$1;
#X msg 510 425 22 \$1;
#X msg 544 425 23 \$1;
#X msg 342 525 24 \$1;
#X msg 376 525 25 \$1;
#X msg 411 525 26 \$1;
#X msg 445 525 27 \$1;
#X msg 480 525 28 \$1;
#X msg 514 525 29 \$1;
#X msg 549 525 30 \$1;
#X msg 583 525 31 \$1;
#X obj 40 625 clone unit_tri 32;
#X connect 0 0 20 0;
#X connect 3 0 21 0;
#X connect 4 0 70 0;
#X connect 5 0 70 0;
#X connect 6 0 70 0;
#X connect 7 0 70 0;
#X connect 8 0 70 0;
#X connect 9 0 70 0;
#X connect 10 0 70 0;
#X connect 11 0 70 0;
#X connect 12 0 70 1;
#X connect 13 0 70 1;
#X connect 14 0 70 1;
#X connect 15 0 70 1;
#X connect 16 0 70 1;
#X connect 17 0 70 1;
#X connect 18 0 70 1;
#X connect 19 0 70 1;
#X connect 20 0 4 0;
#X connect 20 1 5 0;
#X connect 20 2 6 0;
#X connect 20 3 7 0;
#X connect 20 4 8 0;
#X connect 20 5 9 0;
#X connect 20 6 10 0;
#X connect 20 7 11 0;
#X connect 20 8 22 0;
#X connect 20 9 23 0;
#X connect 20 10 24 0;
#X connect 20 11 25 0;
#X connect 20 12 26 0;
#X connect 20 13 27 0;
#X connect 20 14 28 0;
#X connect 20 15 29 0;
#X connect 20 16 30 0;
#X connect 20 17 31 0;
#X connect 20 18 32 0;
#X connect 20 19 33 0;
#X connect 20 20 34 0;
#X connect 20 21 35 0;
#X connect 20 22 36 0;
#X connect 20 23 37 0;
#X connect 20 24 38 0;
#X connect 20 25 39 0;
#X connect 20 26 40 0;
#X connect 20 27 41 0;
#X connect 20 28 42 0;
#X connect 20 29 43 0;
#X connect 20 30 44 0;
#X connect 20 31 45 0;
#X connect 21 0 12 0;
#X connect 21 1 13 0;
#X connect 21 2 14 0;
#X connect 21 3 15 0;
#X connect 21 4 16 0;
#X connect 21 5 17 0;
#X connect 21 6 18 0;
#X connect 21 7 19 0;
#X connect 21 8 46 0;
#X connect 21 9 47 0;
#X connect 21 10 48 0;
#X connect 21 11 49 0;
#X connect 21 12 50 0;
#X connect 21 13 51 0;
#X connect 21 14 52 0;
#X connect 21 15 53 0;
#X connect 21 16 54 0;
#X connect 21 17 55 0;
#X connect 21 18 56 0;
#X connect 21 19 57 0;
#X connect 21 20 58 0;
#X connect 21 21 59 0;
#X connect 21 22 60 0;
#X connect 21 23 61 0;
#X connect 21 24 62 0;
#X connect 21 25 63 0;
#X connect 21 26 64 0;
#X connect 21 27 65 0;
#X connect 21 28 66 0;
#X connect 21 29 67 0;
#X connect 21 30 68 0;
#X connect 21 31 69 0;
#X connect 22 0 70 0;
#X connect 23 0 70 0;
#X connect 24 0 70 0;
#X connect 25 0 70 0;
#X connect 26 0 70 0;
#X connect 27 0 70 0;
#X connect 28 0 70 0;
#X connect 29 0 70 0;
#X connect 30 0 70 0;
#X connect 31 0 70 0;
#X connect 32 0 70 0;
#X connect 33 0 70 0;
#X connect 34 0 70 0;
#X connect 35 0 70 0;
#X connect 36 0 70 0;
#X connect 37 0 70 0;
#X connect 38 0 70 0;
#X connect 39 0 70 0;
#X connect 40 0 70 0;
#X connect 41 0 70 0;
#X connect 42 0 70 0;
#X connect 43 0 70 0;
#X connect 44 0 70 0;
#X connect 45 0 70 0;
#X connect 46 0 70 1;
#X connect 47 0 70 1;
#X connect 48 0 70 1;
#X connect 49 0 70 1;
#X connect 50 0 70 1;
#X connect 51 0 70 1;
#X connect 52 0 70 1;
#X connect 53 0 70 1;
#X connect 54 0 70 1;
#X connect 55 0 70 1;
#X connect 56 0 70 1;
#X connect 57 0 70 1;
#X connect 58 0 70 1;
#X connect 59 0 70 1;
#X connect 60 0 70 1;
#X connect 61 0 70 1;
#X connect 62 0 70 1;
#X connect 63 0 70 1;
#X connect 64 0 70 1;
#X connect 65 0 70 1;
#X connect 66 0 70 1;
#X connect 67 0 70 1;
#X connect 68 0 70 1;
#X connect 69 0 70 1;
#X connect 70 0 1 0;
#X connect 70 1 2 0;
#X restore 87 167 pd tri_bank;
#X obj 172 64 routeOSC /absolute /relative /ids;
#X msg 334 207 0 0.123 \, 1 9.35 \, 3 458;
#N canvas -1254 32 651 756 osc_bank 1;
#X obj 12 10 inlet;
#X obj 46 705 outlet~;
#X obj 95 705 outlet~;
#X obj 250 275 inlet;
#X msg 9 99 0 \$1;
#X msg 43 99 1 \$1;
#X msg 78 99 2 \$1;
#X msg 112 99 3 \$1;
#X msg 147 99 4 \$1;
#X msg 181 99 5 \$1;
#X msg 216 99 6 \$1;
#X msg 250 99 7 \$1;
#X msg 70 367 0 \$1;
#X msg 104 367 1 \$1;
#X msg 139 367 2 \$1;
#X msg 173 367 3 \$1;
#X msg 208 367 4 \$1;
#X msg 242 367 5 \$1;
#X msg 277 367 6 \$1;
#X msg 311 367 7 \$1;
#X obj 11 54 unpack f f f f f f f f f f f f f f f f f f f f f f f f
f f f f f f f f;
#X obj 251 304 unpack f f f f f f f f f f f f f f f f f f f f f f f
f f f f f f f f f;
#X msg 98 127 8 \$1;
#X msg 132 127 9 \$1;
#X msg 166 127 10 \$1;
#X msg 201 127 11 \$1;
#X msg 236 127 12 \$1;
#X msg 270 127 13 \$1;
#X msg 305 127 14 \$1;
#X msg 339 127 15 \$1;
#X msg 230 161 16 \$1;
#X msg 264 161 17 \$1;
#X msg 306 161 18 \$1;
#X msg 340 161 19 \$1;
#X msg 375 161 20 \$1;
#X msg 409 161 21 \$1;
#X msg 444 161 22 \$1;
#X msg 482 161 23 \$1;
#X msg 340 187 24 \$1;
#X msg 374 187 25 \$1;
#X msg 408 187 26 \$1;
#X msg 443 187 27 \$1;
#X msg 478 187 28 \$1;
#X msg 512 187 29 \$1;
#X msg 547 187 30 \$1;
#X msg 581 187 31 \$1;
#X msg 182 397 8 \$1;
#X msg 216 397 9 \$1;
#X msg 251 397 10 \$1;
#X msg 285 397 11 \$1;
#X msg 320 397 12 \$1;
#X msg 354 397 13 \$1;
#X msg 389 397 14 \$1;
#X msg 423 397 15 \$1;
#X msg 303 425 16 \$1;
#X msg 337 425 17 \$1;
#X msg 372 425 18 \$1;
#X msg 406 425 19 \$1;
#X msg 441 425 20 \$1;
#X msg 475 425 21 \$1;
#X msg 510 425 22 \$1;
#X msg 544 425 23 \$1;
#X msg 342 525 24 \$1;
#X msg 376 525 25 \$1;
#X msg 411 525 26 \$1;
#X msg 445 525 27 \$1;
#X msg 480 525 28 \$1;
#X msg 514 525 29 \$1;
#X msg 549 525 30 \$1;
#X msg 583 525 31 \$1;
#X obj 40 625 clone unit_osc 32;
#X connect 0 0 20 0;
#X connect 3 0 21 0;
#X connect 4 0 70 0;
#X connect 5 0 70 0;
#X connect 6 0 70 0;
#X connect 7 0 70 0;
#X connect 8 0 70 0;
#X connect 9 0 70 0;
#X connect 10 0 70 0;
#X connect 11 0 70 0;
#X connect 12 0 70 1;
#X connect 13 0 70 1;
#X connect 14 0 70 1;
#X connect 15 0 70 1;
#X connect 16 0 70 1;
#X connect 17 0 70 1;
#X connect 18 0 70 1;
#X connect 19 0 70 1;
#X connect 20 0 4 0;
#X connect 20 1 5 0;
#X connect 20 2 6 0;
#X connect 20 3 7 0;
#X connect 20 4 8 0;
#X connect 20 5 9 0;
#X connect 20 6 10 0;
#X connect 20 7 11 0;
#X connect 20 8 22 0;
#X connect 20 9 23 0;
#X connect 20 10 24 0;
#X connect 20 11 25 0;
#X connect 20 12 26 0;
#X connect 20 13 27 0;
#X connect 20 14 28 0;
#X connect 20 15 29 0;
#X connect 20 16 30 0;
#X connect 20 17 31 0;
#X connect 20 18 32 0;
#X connect 20 19 33 0;
#X connect 20 20 34 0;
#X connect 20 21 35 0;
#X connect 20 22 36 0;
#X connect 20 23 37 0;
#X connect 20 24 38 0;
#X connect 20 25 39 0;
#X connect 20 26 40 0;
#X connect 20 27 41 0;
#X connect 20 28 42 0;
#X connect 20 29 43 0;
#X connect 20 30 44 0;
#X connect 20 31 45 0;
#X connect 21 0 12 0;
#X connect 21 1 13 0;
#X connect 21 2 14 0;
#X connect 21 3 15 0;
#X connect 21 4 16 0;
#X connect 21 5 17 0;
#X connect 21 6 18 0;
#X connect 21 7 19 0;
#X connect 21 8 46 0;
#X connect 21 9 47 0;
#X connect 21 10 48 0;
#X connect 21 11 49 0;
#X connect 21 12 50 0;
#X connect 21 13 51 0;
#X connect 21 14 52 0;
#X connect 21 15 53 0;
#X connect 21 16 54 0;
#X connect 21 17 55 0;
#X connect 21 18 56 0;
#X connect 21 19 57 0;
#X connect 21 20 58 0;
#X connect 21 21 59 0;
#X connect 21 22 60 0;
#X connect 21 23 61 0;
#X connect 21 24 62 0;
#X connect 21 25 63 0;
#X connect 21 26 64 0;
#X connect 21 27 65 0;
#X connect 21 28 66 0;
#X connect 21 29 67 0;
#X connect 21 30 68 0;
#X connect 21 31 69 0;
#X connect 22 0 70 0;
#X connect 23 0 70 0;
#X connect 24 0 70 0;
#X connect 25 0 70 0;
#X connect 26 0 70 0;
#X connect 27 0 70 0;
#X connect 28 0 70 0;
#X connect 29 0 70 0;
#X connect 30 0 70 0;
#X connect 31 0 70 0;
#X connect 32 0 70 0;
#X connect 33 0 70 0;
#X connect 34 0 70 0;
#X connect 35 0 70 0;
#X connect 36 0 70 0;
#X connect 37 0 70 0;
#X connect 38 0 70 0;
#X connect 39 0 70 0;
#X connect 40 0 70 0;
#X connect 41 0 70 0;
#X connect 42 0 70 0;
#X connect 43 0 70 0;
#X connect 44 0 70 0;
#X connect 45 0 70 0;
#X connect 46 0 70 1;
#X connect 47 0 70 1;
#X connect 48 0 70 1;
#X connect 49 0 70 1;
#X connect 50 0 70 1;
#X connect 51 0 70 1;
#X connect 52 0 70 1;
#X connect 53 0 70 1;
#X connect 54 0 70 1;
#X connect 55 0 70 1;
#X connect 56 0 70 1;
#X connect 57 0 70 1;
#X connect 58 0 70 1;
#X connect 59 0 70 1;
#X connect 60 0 70 1;
#X connect 61 0 70 1;
#X connect 62 0 70 1;
#X connect 63 0 70 1;
#X connect 64 0 70 1;
#X connect 65 0 70 1;
#X connect 66 0 70 1;
#X connect 67 0 70 1;
#X connect 68 0 70 1;
#X connect 69 0 70 1;
#X connect 70 0 1 0;
#X connect 70 1 2 0;
#X restore 171 164 pd osc_bank;
#X connect 0 0 6 1;
#X connect 0 0 7 1;
#X connect 1 0 2 0;
#X connect 3 0 13 0;
#X connect 4 0 3 0;
#X connect 6 0 5 0;
#X connect 7 0 5 1;
#X connect 10 0 2 0;
#X connect 12 0 6 0;
#X connect 12 1 7 0;
#X connect 13 0 12 0;
#X connect 13 2 12 1;
#X connect 13 2 9 0;
#X connect 14 0 9 0;
