#N canvas -624 105 556 422 10;
#X obj 266 134 vsl 15 128 0.01 1 1 0 empty empty empty 0 -9 0 10 -262144
-1 -1 2500 1;
#X obj 311 12 loadbang;
#X obj 311 36 s b;
#X obj 172 43 unpackOSC;
#X obj 172 23 udpreceive 3001;
#X obj 204 337 dac~;
#X obj 196 288 *~;
#X obj 227 289 *~;
#X obj 378 145 r b;
#X obj 319 124 print;
#X obj 371 13 bng 15 250 50 0 empty empty empty 17 7 0 10 -262144 -1
-1;
#N canvas 782 179 651 756 osc_bank 0;
#X obj 114 12 inlet;
#X obj 182 344 outlet~;
#X obj 231 344 outlet~;
#X obj 113 56 unpack f f f f f f f f;
#X obj 349 49 inlet;
#X msg 11 156 0 \$1;
#X msg 45 156 1 \$1;
#X msg 80 156 2 \$1;
#X msg 114 156 3 \$1;
#X msg 149 156 4 \$1;
#X msg 183 156 5 \$1;
#X msg 218 156 6 \$1;
#X msg 252 156 7 \$1;
#X obj 176 264 clone unit_osc 8;
#X msg 288 158 0 \$1;
#X msg 322 158 1 \$1;
#X msg 357 158 2 \$1;
#X msg 391 158 3 \$1;
#X msg 426 158 4 \$1;
#X msg 460 158 5 \$1;
#X msg 495 158 6 \$1;
#X msg 529 158 7 \$1;
#X obj 350 78 unpack f f f f f f f f;
#X connect 0 0 3 0;
#X connect 3 0 5 0;
#X connect 3 1 6 0;
#X connect 3 2 7 0;
#X connect 3 3 8 0;
#X connect 3 4 9 0;
#X connect 3 5 10 0;
#X connect 3 6 11 0;
#X connect 3 7 12 0;
#X connect 4 0 22 0;
#X connect 5 0 13 0;
#X connect 6 0 13 0;
#X connect 7 0 13 0;
#X connect 8 0 13 0;
#X connect 9 0 13 0;
#X connect 10 0 13 0;
#X connect 11 0 13 0;
#X connect 12 0 13 0;
#X connect 13 0 1 0;
#X connect 13 1 2 0;
#X connect 14 0 13 1;
#X connect 15 0 13 1;
#X connect 16 0 13 1;
#X connect 17 0 13 1;
#X connect 18 0 13 1;
#X connect 19 0 13 1;
#X connect 20 0 13 1;
#X connect 21 0 13 1;
#X connect 22 0 14 0;
#X connect 22 1 15 0;
#X connect 22 2 16 0;
#X connect 22 3 17 0;
#X connect 22 4 18 0;
#X connect 22 5 19 0;
#X connect 22 6 20 0;
#X connect 22 7 21 0;
#X restore 172 167 pd osc_bank;
#N canvas 0 50 606 449 amp_trig_bank 0;
#X restore 35 267 pd amp_trig_bank;
#N canvas 106 179 651 756 tri_bank 1;
#X obj 114 12 inlet;
#X obj 182 344 outlet~;
#X obj 231 344 outlet~;
#X obj 113 56 unpack f f f f f f f f;
#X obj 349 49 inlet;
#X msg 11 155 0 \$1;
#X msg 45 155 1 \$1;
#X msg 80 155 2 \$1;
#X msg 114 155 3 \$1;
#X msg 149 155 4 \$1;
#X msg 183 155 5 \$1;
#X msg 218 155 6 \$1;
#X msg 252 155 7 \$1;
#X obj 176 264 clone unit_tri 8;
#X msg 288 158 0 \$1;
#X msg 322 158 1 \$1;
#X msg 357 158 2 \$1;
#X msg 391 158 3 \$1;
#X msg 426 158 4 \$1;
#X msg 460 158 5 \$1;
#X msg 495 158 6 \$1;
#X msg 529 158 7 \$1;
#X obj 350 78 unpack f f f f f f f f;
#X connect 0 0 3 0;
#X connect 3 0 5 0;
#X connect 3 1 6 0;
#X connect 3 2 7 0;
#X connect 3 3 8 0;
#X connect 3 4 9 0;
#X connect 3 5 10 0;
#X connect 3 6 11 0;
#X connect 3 7 12 0;
#X connect 4 0 22 0;
#X connect 5 0 13 0;
#X connect 6 0 13 0;
#X connect 7 0 13 0;
#X connect 8 0 13 0;
#X connect 9 0 13 0;
#X connect 10 0 13 0;
#X connect 11 0 13 0;
#X connect 12 0 13 0;
#X connect 13 0 1 0;
#X connect 13 1 2 0;
#X connect 14 0 13 1;
#X connect 15 0 13 1;
#X connect 16 0 13 1;
#X connect 17 0 13 1;
#X connect 18 0 13 1;
#X connect 19 0 13 1;
#X connect 20 0 13 1;
#X connect 21 0 13 1;
#X connect 22 0 14 0;
#X connect 22 1 15 0;
#X connect 22 2 16 0;
#X connect 22 3 17 0;
#X connect 22 4 18 0;
#X connect 22 5 19 0;
#X connect 22 6 20 0;
#X connect 22 7 21 0;
#X restore 87 167 pd tri_bank;
#X obj 172 64 routeOSC /absolute /relative /ids;
#X msg 334 207 0 0.123 \, 1 9.35 \, 3 458;
#X connect 0 0 6 1;
#X connect 0 0 7 1;
#X connect 1 0 2 0;
#X connect 3 0 14 0;
#X connect 4 0 3 0;
#X connect 6 0 5 0;
#X connect 7 0 5 1;
#X connect 10 0 2 0;
#X connect 13 0 6 0;
#X connect 13 1 7 0;
#X connect 14 0 13 0;
#X connect 14 2 13 1;
#X connect 14 2 11 1;
#X connect 14 2 9 0;
#X connect 15 0 9 0;
