#N canvas 459 324 450 300 12;
#X obj 230 13 inlet control;
#X obj 231 60 / 4;
#X floatatom 231 85 5 0 0 0 - - -;
#X obj 231 111 + 0.75;
#X msg 231 137 \$1 10;
#X obj 231 163 line~;
#X obj 230 187 cos~;
#X obj 212 212 *~;
#X msg 50 138 \$1 10;
#X obj 50 164 line~;
#X obj 49 188 cos~;
#X obj 31 215 *~;
#X obj 30 244 outlet~ left;
#X obj 211 240 outlet~ right;
#X obj 14 17 inlet~ inLeft;
#X obj 119 12 inlet~ inRight;
#X obj 315 102 print;
#X connect 0 0 1 0;
#X connect 0 0 16 0;
#X connect 1 0 2 0;
#X connect 2 0 3 0;
#X connect 2 0 8 0;
#X connect 3 0 4 0;
#X connect 4 0 5 0;
#X connect 5 0 6 0;
#X connect 6 0 7 1;
#X connect 7 0 13 0;
#X connect 8 0 9 0;
#X connect 9 0 10 0;
#X connect 10 0 11 1;
#X connect 11 0 12 0;
#X connect 14 0 11 0;
#X connect 15 0 7 0;
