#N canvas 568 389 450 300 12;
#X obj 48 8 inlet~;
#X obj 135 8 inlet~;
#X obj 60 250 outlet~;
#X obj 148 247 outlet~;
#X obj 186 8 inlet;
#X obj 274 6 inlet;
#X obj 186 37 pow 2;
#X obj 59 111 lop~ 200;
#X obj 146 112 lop~ 200;
#X obj 98 182 panner;
#X obj 274 62 float \$1;
#X obj 274 91 / 8;
#X obj 186 68 * 20000;
#X connect 0 0 7 0;
#X connect 1 0 8 0;
#X connect 4 0 6 0;
#X connect 5 0 10 0;
#X connect 6 0 12 0;
#X connect 7 0 9 0;
#X connect 8 0 9 1;
#X connect 9 0 2 0;
#X connect 9 1 3 0;
#X connect 10 0 11 0;
#X connect 11 0 9 2;
#X connect 12 0 7 1;
#X connect 12 0 8 1;
