#N canvas 790 381 450 300 12;
#X obj 94 227 outlet~;
#X obj 167 225 outlet~;
#X obj 101 4 inlet;
#X obj 169 6 inlet;
#X obj 101 33 pow 2;
#X obj 101 64 * 20000;
#X obj 98 111 osc~ 200;
#X obj 98 182 monopanner;
#X floatatom 51 34 5 0 0 0 - - -;
#X connect 2 0 4 0;
#X connect 2 0 8 0;
#X connect 3 0 7 1;
#X connect 4 0 5 0;
#X connect 5 0 6 0;
#X connect 6 0 7 0;
#X connect 7 0 0 0;
#X connect 7 1 1 0;
