#N canvas 624 381 450 300 12;
#X obj 96 262 outlet~;
#X obj 169 260 outlet~;
#X obj 101 4 inlet;
#X obj 169 6 inlet;
#X obj 101 33 pow 2;
#X obj 169 62 float \$1;
#X obj 168 112 / 8;
#X obj 101 64 * 20000;
#X obj 100 217 monopanner;
#X floatatom 197 39 5 0 0 0 - - -;
#X floatatom 51 34 5 0 0 0 - - -;
#X obj 101 87 phasor~ 200;
#X obj 100 112 -~ 0.5;
#X obj 100 136 abs~;
#X obj 100 160 *~ 4;
#X obj 100 184 -~ 1;
#X connect 2 0 4 0;
#X connect 2 0 10 0;
#X connect 3 0 5 0;
#X connect 3 0 9 0;
#X connect 4 0 7 0;
#X connect 5 0 6 0;
#X connect 6 0 8 1;
#X connect 7 0 11 0;
#X connect 8 0 0 0;
#X connect 8 1 1 0;
#X connect 11 0 12 0;
#X connect 12 0 13 0;
#X connect 13 0 14 0;
#X connect 14 0 15 0;
#X connect 15 0 8 0;
