#N canvas 58 105 450 300 12;
#X obj 59 10 inlet~;
#X obj 148 10 inlet~;
#X obj 60 250 outlet~;
#X obj 148 247 outlet~;
#X obj 59 111 bp~ 200 10;
#X obj 148 111 bp~ 200 10;
#X obj 201 6 inlet;
#X obj 274 5 inlet;
#X obj 201 68 * 20000;
#X obj 201 35 pow 2;
#X obj 274 110 float \$1;
#X obj 274 139 / 8;
#X obj 100 189 panner;
#X connect 0 0 4 0;
#X connect 1 0 5 0;
#X connect 4 0 12 0;
#X connect 5 0 12 1;
#X connect 6 0 9 0;
#X connect 7 0 10 0;
#X connect 8 0 5 1;
#X connect 8 0 4 1;
#X connect 9 0 8 0;
#X connect 10 0 11 0;
#X connect 11 0 12 2;
#X connect 12 0 2 0;
#X connect 12 1 3 0;
